<?xml version="1.0" encoding="UTF-8"?><svg id="Layer_1" xmlns="http://www.w3.org/2000/svg" viewBox="0 0 512.9 76.2"><path d="M22.2,16.6h1.9l21.2,44.6h-11.4l-2.2-4.5H14.6l-2.1,4.5H1.2L22.2,16.6ZM10.7,59.2l4.7-10h-5.8l-4.8,10h5.9Zm17.4-10l-5-10.9h-.1l-5,10.9h10.2Zm7.5,10h6l-4.8-10h-5.8l4.6,10Z" style="fill:#262262;"/><path d="M49.8,18h11.2l16.8,25.6V18h10.5V61.2h-11l-16.8-25.7v25.7h-10.6V18Zm7.9,41.2v-26.4l-5.3-8.3V59.2h5.3Zm27.9-4.8V20h-5.2v26.3l5.2,8.1Z" style="fill:#262262;"/><path d="M95.2,18h11.2l16.8,25.6V18h10.5V61.2h-11l-16.8-25.7v25.7h-10.6V18Zm7.9,41.2v-26.4l-5.3-8.3V59.2h5.3Zm27.9-4.8V20h-5.2v26.3l5.2,8.1Z" style="fill:#262262;"/><path d="M159.3,16.6h1.9l21.2,44.6h-11.4l-2.2-4.5h-17.1l-2.1,4.5h-11.4l21-44.6Zm-11.5,42.6l4.7-10h-5.8l-4.8,10h5.9Zm17.4-10l-5-10.9h-.1l-5,10.9h10.2Zm7.5,10h6l-4.8-10h-5.8l4.6,10Z" style="fill:#262262;"/><path d="M210.6,47.8c.5,3.1,1.7,5,5.1,5s5.6-1.4,5.6-6.7V18h10.4v30c0,9.1-7.1,14.6-15.6,14.6s-15.8-5.4-15.8-14.5l10.2-.4Zm18.5-12.7v-15.1h-5.1v15.1h5.1Z" style="fill:#262262;"/><path d="M238.7,18h28.6v9.4h-18v7.8h16.6v9.2h-16.6v7.8h18.8v9.1h-29.4V18Zm7.9,36.1V25.3l-5.3-5.3V59.2l5.3-5Z" style="fill:#262262;"/><path d="M273.2,18h11.2l16.8,25.6V18h10.5V61.2h-11l-16.8-25.7v25.7h-10.6V18Zm7.9,41.2v-26.4l-5.3-8.3V59.2h5.3Zm27.9-4.8V20h-5.2v26.3l5.2,8.1Z" style="fill:#262262;"/><path d="M318.5,18h11.2l16.8,25.6V18h10.5V61.2h-11l-16.8-25.7v25.7h-10.6V18Zm7.9,41.2v-26.4l-5.3-8.3V59.2h5.3Zm27.9-4.8V20h-5.2v26.3l5.2,8.1Z" style="fill:#262262;"/><path d="M363.9,18h10.6V61.2h-10.6V18Zm7.9,41.2v-15.4h-5.3v15.4h5.3Z" style="fill:#262262;"/><path d="M381.4,18h11.2l16.8,25.6V18h10.5V61.2h-11l-16.8-25.7v25.7h-10.6V18Zm7.9,41.2v-26.4l-5.3-8.3V59.2h5.3Zm27.9-4.8V20h-5.2v26.3l5.2,8.1Z" style="fill:#262262;"/><path d="M449.9,16.6c8,0,13.5,3,18.1,7.6l-7.3,6.8c-3-2.7-6.6-4.3-10.7-4.3-7.7,0-12.7,5.8-12.7,13s5.7,13,12.9,13,11.2-4.2,11.5-8.4h-12.3v-9.1h23.8v4.1c0,12.7-7.5,23.4-23.2,23.4s-23.4-10.2-23.4-23,9.7-23,23.4-23Zm-14.8,18.6c1.7-6.2,7.2-10.6,14.8-10.6s7.6,1.4,10.6,3.5l4.2-4c-3.7-3.5-8.6-5.4-14.8-5.4-10.5,0-18.4,7-20.3,16.6h5.5Z" style="fill:#262262;"/><path d="M490.1,48.5c0,2.5,2,4.5,4.5,4.5s4.3-1.5,4.3-3.7c0-3.2-4.2-4.2-7.8-5.4-7.3-2.6-11.3-6-11.3-13.4s6.6-14,14.7-14,14.1,6.1,14.7,14.1h-9.9c0-2.4-1.5-4.5-4.5-4.5s-4.5,1.4-4.5,4.2,4,3.8,7.6,4.9c7.7,2.3,11.3,6.6,11.3,13.4s-6.5,14-14.6,14-14.8-6.3-14.8-14.1h10.3Zm4.5,12.1v-5.5c-3.7,0-6-2.2-6.6-4.5h-5.6c.1,5.4,5.4,10.1,12.2,10.1Zm12-32c-.4-4.2-3.6-10.1-12-10.1v5.6c4.5,0,6,2.7,6.6,4.5h5.4Z" style="fill:#262262;"/></svg>