<svg xmlns="http://www.w3.org/2000/svg" xmlns:xlink="http://www.w3.org/1999/xlink" width="195" height="166.584" viewBox="0 0 195 166.584"><defs><style>.a{fill:#fcfaf4;}.b{fill:#559499;}.c{fill:#728776;}.d,.j{fill:#0d1338;}.d{fill-rule:evenodd;}.e,.f{fill:#fdf6dc;}.e,.h{stroke-linecap:round;stroke-linejoin:round;}.g{fill:#fff;}.h,.i{fill:none;}.i{stroke:#0d1338;stroke-width:5px;}.j{font-size:28px;font-family:Eigerdals-Bla, Eigerdals;}.k,.l{stroke:none;}.l{fill:#0d1338;}.m{filter:url(#e);}.n{filter:url(#c);}.o{filter:url(#a);}</style><filter id="a" x="24.313" y="0" width="150.312" height="148.442" filterUnits="userSpaceOnUse"><feOffset dy="3" input="SourceAlpha"/><feGaussianBlur stdDeviation="3" result="b"/><feFlood flood-opacity="0.161"/><feComposite operator="in" in2="b"/><feComposite in="SourceGraphic"/></filter><filter id="c" x="63.587" y="60.613" width="73.17" height="69.121" filterUnits="userSpaceOnUse"><feOffset dy="3" input="SourceAlpha"/><feGaussianBlur stdDeviation="3" result="d"/><feFlood flood-opacity="0.161"/><feComposite operator="in" in2="d"/></filter><filter id="e" x="63.587" y="60.613" width="73.17" height="69.121" filterUnits="userSpaceOnUse"><feOffset dy="3" input="SourceAlpha"/><feGaussianBlur stdDeviation="3" result="f"/><feFlood flood-opacity="0.161" result="g"/><feComposite operator="out" in="SourceGraphic" in2="f"/><feComposite operator="in" in="g"/><feComposite operator="in" in2="SourceGraphic"/></filter></defs><g transform="translate(0 6)"><g transform="translate(33.313 0)"><path class="a" d="M65.542,0,98.286,28.729l2.443-24.982,16.827-1.568.991,43.858,10.585,12.574-9.947,13.421-3.379,53.161-7.743,1.342-96.274-1.342V72.684L0,58.035Z" transform="translate(2.294 1.335)"/><rect class="b" width="15.435" height="43.446" transform="translate(102.17 4.678)"/><g transform="translate(0 0.093)"><rect class="c" width="89.178" height="17.15" transform="translate(0 58.506) rotate(-41)"/><rect class="c" width="87.721" height="16.578" transform="translate(121.371 70.4) rotate(-139)"/></g><g class="o" transform="matrix(1, 0, 0, 1, -33.31, -6)"><path class="d" d="M15.658,72.377c0-3.154,8.918-10.149,11.6-12.538,4.327-3.857,7.285-6.348,12.4-11.231,1.076-1.028,2.309-2.061,3.376-2.889L62.125,28.633c1.962-1.74,1.243-2.231,3.4-2.231,3.936,0,2.171-.5,5.279,2.439.934.884,2.27,1.9,3.382,2.86,1.953,1.68,4.063,3.659,6.165,5.655,11.139,10.578,20.077,17.518,31.524,28.326,1.723,1.626,5.044,3.58,5.044,6.7V119c0,4.885-2.758,6.994-7.561,6.994H23.084c-5.06,0-7.426-2.911-7.426-7.69V72.377Zm87.989-66.3c.391-.193,13.274-2.911,13.274,2.28,0,33.848,2.248,37.831-6.722,29.072-.737-.72-1.36-1.421-2.116-2.041-1.551-1.27-4.514-2.38-4.515-6.156l.079-23.156ZM5.672,59.852c1.3-3.373,3.353-4.011,7.133-7.49L24.395,41.683c9.613-7.332,18.862-17.742,26.079-23.317,1.983-1.531,2.293-1.278,4.333-3.309C68.892,1.03,65.67,3.789,82.175,18.842l37.968,33.7c2.3,2.248,6,4.106,6.794,7.3-.66,2.219-4.144,5.812-6.444,6.608-2.115-.848-2.372-1.7-3.693-2.923-1.784-1.655-1.844-1.17-3.638-2.614-1.923-1.548-4.886-4.448-6.576-5.962L86.7,37.317c-28.3-24.377-13.643-21.219-40.916.05a36.25,36.25,0,0,0-3.369,2.824l-3.277,3.016c-.564.5-25.385,23.333-27.184,23.253-2.053-.854-5.538-5.044-6.279-6.608Zm5.535,19.484c0,8.844-1.445,40.866,1.923,46.154a11.634,11.634,0,0,0,9.257,4.953h87.32c15.436,0,11.662-18.511,11.662-35.8,0-27.558-1.939-17.153,8.028-30.052l.936-1.178c7.55-9.62-8.944-8.88-9.013-19.515l.049-27.887c0-17.683,3.831-14.651-19.663-14.651a4.516,4.516,0,0,0-2.286.538C98.395,7.5,100.575,21.44,98.3,25.756c-1.258,1.055-12.056-9.5-13.856-11.276L70.051,1.754c-5.2-4.835-7.18,1.182-16.036,7.632L4.125,54.108c-.11.092-.272.221-.381.313-.8.678-.543.432-1.112.971-3.224,3.054-5.244,3.516,4.793,13.856,3.69,3.8,3.781,3.31,3.781,10.088Z" transform="translate(33.31 6)"/></g><g transform="translate(39.275 60.613)"><g data-type="innerShadowGroup"><g class="n" transform="matrix(1, 0, 0, 1, -72.59, -66.61)"><g class="e" transform="translate(72.59 66.61)"><path class="k" d="M 47.47174453735352 48.62065505981445 L 7.420695304870605 48.62065505981445 C 5.863465785980225 48.62065505981445 4.136735916137695 48.11951065063477 3.091702461242676 44.44894409179688 C 3.087116718292236 44.36430358886719 3.082715272903442 44.24832534790039 3.082715272903442 44.1271858215332 L 3.082715272903442 44.07779693603516 L 3.080765247344971 44.02843475341797 C 3.07752513885498 43.94658660888672 2.755365133285522 35.74470520019531 2.593085289001465 27.1551570892334 C 2.498065233230591 22.12599563598633 2.475655078887939 17.95321655273438 2.526475191116333 14.75273609161377 C 2.612602233886719 9.328113555908203 2.891036033630371 8.15592098236084 2.947898149490356 7.971606254577637 L 3.001735210418701 7.815396308898926 C 3.584195137023926 6.12476634979248 3.839845180511475 5.418236255645752 4.323524951934814 4.905266284942627 C 4.913818359375 4.279216289520264 6.188127040863037 3.567438364028931 8.048205375671387 2.645804405212402 C 9.016942024230957 2.60706639289856 9.654271125793457 2.574766397476196 10.13890552520752 2.550206422805786 C 10.79850482940674 2.516776561737061 11.12958526611328 2.499996423721313 11.63990497589111 2.499996423721313 C 12.3159351348877 2.499996423721313 13.33784484863281 2.529456377029419 15.57688522338867 2.594006538391113 C 16.29581451416016 2.614726543426514 17.14022445678711 2.639076471328735 18.1401252746582 2.667256593704224 C 21.09755516052246 2.750536441802979 25.16128540039062 2.792766571044922 30.2184944152832 2.792766571044922 C 37.98605346679688 2.792766571044922 45.77451705932617 2.691726446151733 47.25687026977539 2.671482086181641 C 47.55562210083008 2.740995645523071 48.31191635131836 2.957983732223511 49.12812423706055 3.512346506118774 C 50.48456573486328 4.433626651763916 51.41157531738281 5.864166259765625 51.88341522216797 7.764236450195312 C 52.48518371582031 10.18749618530273 52.76780700683594 17.3160572052002 52.63943481445312 26.83312606811523 C 52.52365493774414 35.41720962524414 52.1241340637207 42.38706970214844 51.89705276489258 43.47114181518555 C 51.62918472290039 44.39078140258789 50.97583389282227 45.79924774169922 50.10626602172852 46.90450668334961 C 49.49031448364258 47.68740463256836 48.53325653076172 48.62065505981445 47.47174453735352 48.62065505981445 Z"/><path class="l" d="M 11.63988494873047 4.999992370605469 C 11.19288635253906 4.999992370605469 10.90226364135742 5.014724731445312 10.26551055908203 5.046993255615234 C 9.870872497558594 5.066997528076172 9.376228332519531 5.092063903808594 8.687046051025391 5.121524810791016 C 7.800266265869141 5.569072723388672 7.182178497314453 5.907161712646484 6.738662719726562 6.185676574707031 C 6.257545471191406 6.487804412841797 6.138687133789062 6.624370574951172 6.137874603271484 6.625347137451172 C 5.987617492675781 6.823642730712891 5.627979278564453 7.867511749267578 5.365379333496094 8.629722595214844 L 5.3533935546875 8.664512634277344 C 5.233272552490234 9.279628753662109 4.807239532470703 12.58102798461914 5.102310180664062 27.61035919189453 C 5.266735076904297 35.98495864868164 5.575710296630859 43.85120391845703 5.578804016113281 43.9296875 C 5.580394744873047 43.96996307373047 5.581501007080078 44.0102653503418 5.582118988037109 44.05057525634766 C 5.964656829833984 45.26152801513672 6.367225646972656 45.72999572753906 6.534523010253906 45.88262939453125 C 6.625686645507812 45.96581649780273 6.795391082763672 46.12065124511719 7.420696258544922 46.12065124511719 L 47.3591423034668 46.12065124511719 C 47.52546691894531 46.02386856079102 47.94348907470703 45.68741989135742 48.44467544555664 44.94035720825195 C 48.97623825073242 44.14801406860352 49.31159973144531 43.34250259399414 49.45741653442383 42.89845275878906 C 49.65119552612305 41.55117034912109 50.03708648681641 35.06095123291016 50.14435577392578 26.43692398071289 C 50.27815628051758 15.68077087402344 49.85776901245117 9.980171203613281 49.45711135864258 8.366748809814453 C 49.15053176879883 7.132205963134766 48.62633514404297 6.251358032226562 47.85454559326172 5.673900604248047 C 47.49465179443359 5.404613494873047 47.14690017700195 5.25390625 46.9249153137207 5.1761474609375 C 44.79358673095703 5.204238891601562 37.49690246582031 5.292758941650391 30.21849822998047 5.292758941650391 C 25.13774490356445 5.292758941650391 21.05033493041992 5.250194549560547 18.06969833374023 5.166252136230469 C 17.06874465942383 5.138042449951172 16.2235107421875 5.113677978515625 15.50393295288086 5.092933654785156 C 13.29016876220703 5.029125213623047 12.27979278564453 4.999992370605469 11.63988494873047 4.999992370605469 M 11.63988876342773 -3.814697265625e-06 C 12.57634353637695 -3.814697265625e-06 14.04042816162109 0.05071258544921875 18.21055603027344 0.1682395935058594 C 28.15939521789551 0.4484062194824219 47.47174453735352 0.1682395935058594 47.47174453735352 0.1682395935058594 C 47.47174453735352 0.1682395935058594 52.73876953125 0.8355941772460938 54.30972290039062 7.161712646484375 C 55.88068771362305 13.48783111572266 54.93868637084961 41.92343139648438 54.30972290039062 44.12718200683594 C 53.68075561523438 46.33093643188477 51.24825286865234 51.12065124511719 47.47174453735352 51.12065124511719 L 7.420696258544922 51.12065124511719 C 4.006732940673828 51.12065124511719 1.749897003173828 49.07275772094727 0.6249465942382812 44.90885162353516 C 0.6109199523925781 44.86203002929688 0.5827102661132812 44.49797058105469 0.5827102661132812 44.12718200683594 C 0.5827102661132812 44.12718200683594 -0.7283973693847656 10.96455764770508 0.5827102661132812 7.161712646484375 C 1.893814086914062 3.358875274658203 2.017169952392578 2.812263488769531 7.420696258544922 0.1682395935058594 C 10.20426559448242 0.0636138916015625 10.59123992919922 -3.814697265625e-06 11.63988876342773 -3.814697265625e-06 Z"/></g></g><g class="f"><path class="k" d="M 47.47174453735352 48.62065505981445 L 7.420695304870605 48.62065505981445 C 5.863465785980225 48.62065505981445 4.136735916137695 48.11951065063477 3.091702461242676 44.44894409179688 C 3.087116718292236 44.36430358886719 3.082715272903442 44.24832534790039 3.082715272903442 44.1271858215332 L 3.082715272903442 44.07779693603516 L 3.080765247344971 44.02843475341797 C 3.07752513885498 43.94658660888672 2.755365133285522 35.74470520019531 2.593085289001465 27.1551570892334 C 2.498065233230591 22.12599563598633 2.475655078887939 17.95321655273438 2.526475191116333 14.75273609161377 C 2.612602233886719 9.328113555908203 2.891036033630371 8.15592098236084 2.947898149490356 7.971606254577637 L 3.001735210418701 7.815396308898926 C 3.584195137023926 6.12476634979248 3.839845180511475 5.418236255645752 4.323524951934814 4.905266284942627 C 4.913818359375 4.279216289520264 6.188127040863037 3.567438364028931 8.048205375671387 2.645804405212402 C 9.016942024230957 2.60706639289856 9.654271125793457 2.574766397476196 10.13890552520752 2.550206422805786 C 10.79850482940674 2.516776561737061 11.12958526611328 2.499996423721313 11.63990497589111 2.499996423721313 C 12.3159351348877 2.499996423721313 13.33784484863281 2.529456377029419 15.57688522338867 2.594006538391113 C 16.29581451416016 2.614726543426514 17.14022445678711 2.639076471328735 18.1401252746582 2.667256593704224 C 21.09755516052246 2.750536441802979 25.16128540039062 2.792766571044922 30.2184944152832 2.792766571044922 C 37.98605346679688 2.792766571044922 45.77451705932617 2.691726446151733 47.25687026977539 2.671482086181641 C 47.55562210083008 2.740995645523071 48.31191635131836 2.957983732223511 49.12812423706055 3.512346506118774 C 50.48456573486328 4.433626651763916 51.41157531738281 5.864166259765625 51.88341522216797 7.764236450195312 C 52.48518371582031 10.18749618530273 52.76780700683594 17.3160572052002 52.63943481445312 26.83312606811523 C 52.52365493774414 35.41720962524414 52.1241340637207 42.38706970214844 51.89705276489258 43.47114181518555 C 51.62918472290039 44.39078140258789 50.97583389282227 45.79924774169922 50.10626602172852 46.90450668334961 C 49.49031448364258 47.68740463256836 48.53325653076172 48.62065505981445 47.47174453735352 48.62065505981445 Z"/><path class="k" d="M 11.63988494873047 4.999992370605469 C 11.19288635253906 4.999992370605469 10.90226364135742 5.014724731445312 10.26551055908203 5.046993255615234 C 9.870872497558594 5.066997528076172 9.376228332519531 5.092063903808594 8.687046051025391 5.121524810791016 C 7.800266265869141 5.569072723388672 7.182178497314453 5.907161712646484 6.738662719726562 6.185676574707031 C 6.257545471191406 6.487804412841797 6.138687133789062 6.624370574951172 6.137874603271484 6.625347137451172 C 5.987617492675781 6.823642730712891 5.627979278564453 7.867511749267578 5.365379333496094 8.629722595214844 L 5.3533935546875 8.664512634277344 C 5.233272552490234 9.279628753662109 4.807239532470703 12.58102798461914 5.102310180664062 27.61035919189453 C 5.266735076904297 35.98495864868164 5.575710296630859 43.85120391845703 5.578804016113281 43.9296875 C 5.580394744873047 43.96996307373047 5.581501007080078 44.0102653503418 5.582118988037109 44.05057525634766 C 5.964656829833984 45.26152801513672 6.367225646972656 45.72999572753906 6.534523010253906 45.88262939453125 C 6.625686645507812 45.96581649780273 6.795391082763672 46.12065124511719 7.420696258544922 46.12065124511719 L 47.3591423034668 46.12065124511719 C 47.52546691894531 46.02386856079102 47.94348907470703 45.68741989135742 48.44467544555664 44.94035720825195 C 48.97623825073242 44.14801406860352 49.31159973144531 43.34250259399414 49.45741653442383 42.89845275878906 C 49.65119552612305 41.55117034912109 50.03708648681641 35.06095123291016 50.14435577392578 26.43692398071289 C 50.27815628051758 15.68077087402344 49.85776901245117 9.980171203613281 49.45711135864258 8.366748809814453 C 49.15053176879883 7.132205963134766 48.62633514404297 6.251358032226562 47.85454559326172 5.673900604248047 C 47.49465179443359 5.404613494873047 47.14690017700195 5.25390625 46.9249153137207 5.1761474609375 C 44.79358673095703 5.204238891601562 37.49690246582031 5.292758941650391 30.21849822998047 5.292758941650391 C 25.13774490356445 5.292758941650391 21.05033493041992 5.250194549560547 18.06969833374023 5.166252136230469 C 17.06874465942383 5.138042449951172 16.2235107421875 5.113677978515625 15.50393295288086 5.092933654785156 C 13.29016876220703 5.029125213623047 12.27979278564453 4.999992370605469 11.63988494873047 4.999992370605469 M 11.63988876342773 -3.814697265625e-06 C 12.57634353637695 -3.814697265625e-06 14.04042816162109 0.05071258544921875 18.21055603027344 0.1682395935058594 C 28.15939521789551 0.4484062194824219 47.47174453735352 0.1682395935058594 47.47174453735352 0.1682395935058594 C 47.47174453735352 0.1682395935058594 52.73876953125 0.8355941772460938 54.30972290039062 7.161712646484375 C 55.88068771362305 13.48783111572266 54.93868637084961 41.92343139648438 54.30972290039062 44.12718200683594 C 53.68075561523438 46.33093643188477 51.24825286865234 51.12065124511719 47.47174453735352 51.12065124511719 L 7.420696258544922 51.12065124511719 C 4.006732940673828 51.12065124511719 1.749897003173828 49.07275772094727 0.6249465942382812 44.90885162353516 C 0.6109199523925781 44.86203002929688 0.5827102661132812 44.49797058105469 0.5827102661132812 44.12718200683594 C 0.5827102661132812 44.12718200683594 -0.7283973693847656 10.96455764770508 0.5827102661132812 7.161712646484375 C 1.893814086914062 3.358875274658203 2.017169952392578 2.812263488769531 7.420696258544922 0.1682395935058594 C 10.20426559448242 0.0636138916015625 10.59123992919922 -3.814697265625e-06 11.63988876342773 -3.814697265625e-06 Z"/></g><g class="m" transform="matrix(1, 0, 0, 1, -72.59, -66.61)"><g class="g" transform="translate(72.59 66.61)"><path class="k" d="M 47.47174453735352 48.62065505981445 L 7.420695304870605 48.62065505981445 C 5.863465785980225 48.62065505981445 4.136735916137695 48.11951065063477 3.091702461242676 44.44894409179688 C 3.087116718292236 44.36430358886719 3.082715272903442 44.24832534790039 3.082715272903442 44.1271858215332 L 3.082715272903442 44.07779693603516 L 3.080765247344971 44.02843475341797 C 3.07752513885498 43.94658660888672 2.755365133285522 35.74470520019531 2.593085289001465 27.1551570892334 C 2.498065233230591 22.12599563598633 2.475655078887939 17.95321655273438 2.526475191116333 14.75273609161377 C 2.612602233886719 9.328113555908203 2.891036033630371 8.15592098236084 2.947898149490356 7.971606254577637 L 3.001735210418701 7.815396308898926 C 3.584195137023926 6.12476634979248 3.839845180511475 5.418236255645752 4.323524951934814 4.905266284942627 C 4.913818359375 4.279216289520264 6.188127040863037 3.567438364028931 8.048205375671387 2.645804405212402 C 9.016942024230957 2.60706639289856 9.654271125793457 2.574766397476196 10.13890552520752 2.550206422805786 C 10.79850482940674 2.516776561737061 11.12958526611328 2.499996423721313 11.63990497589111 2.499996423721313 C 12.3159351348877 2.499996423721313 13.33784484863281 2.529456377029419 15.57688522338867 2.594006538391113 C 16.29581451416016 2.614726543426514 17.14022445678711 2.639076471328735 18.1401252746582 2.667256593704224 C 21.09755516052246 2.750536441802979 25.16128540039062 2.792766571044922 30.2184944152832 2.792766571044922 C 37.98605346679688 2.792766571044922 45.77451705932617 2.691726446151733 47.25687026977539 2.671482086181641 C 47.55562210083008 2.740995645523071 48.31191635131836 2.957983732223511 49.12812423706055 3.512346506118774 C 50.48456573486328 4.433626651763916 51.41157531738281 5.864166259765625 51.88341522216797 7.764236450195312 C 52.48518371582031 10.18749618530273 52.76780700683594 17.3160572052002 52.63943481445312 26.83312606811523 C 52.52365493774414 35.41720962524414 52.1241340637207 42.38706970214844 51.89705276489258 43.47114181518555 C 51.62918472290039 44.39078140258789 50.97583389282227 45.79924774169922 50.10626602172852 46.90450668334961 C 49.49031448364258 47.68740463256836 48.53325653076172 48.62065505981445 47.47174453735352 48.62065505981445 Z"/><path class="k" d="M 11.63988494873047 4.999992370605469 C 11.19288635253906 4.999992370605469 10.90226364135742 5.014724731445312 10.26551055908203 5.046993255615234 C 9.870872497558594 5.066997528076172 9.376228332519531 5.092063903808594 8.687046051025391 5.121524810791016 C 7.800266265869141 5.569072723388672 7.182178497314453 5.907161712646484 6.738662719726562 6.185676574707031 C 6.257545471191406 6.487804412841797 6.138687133789062 6.624370574951172 6.137874603271484 6.625347137451172 C 5.987617492675781 6.823642730712891 5.627979278564453 7.867511749267578 5.365379333496094 8.629722595214844 L 5.3533935546875 8.664512634277344 C 5.233272552490234 9.279628753662109 4.807239532470703 12.58102798461914 5.102310180664062 27.61035919189453 C 5.266735076904297 35.98495864868164 5.575710296630859 43.85120391845703 5.578804016113281 43.9296875 C 5.580394744873047 43.96996307373047 5.581501007080078 44.0102653503418 5.582118988037109 44.05057525634766 C 5.964656829833984 45.26152801513672 6.367225646972656 45.72999572753906 6.534523010253906 45.88262939453125 C 6.625686645507812 45.96581649780273 6.795391082763672 46.12065124511719 7.420696258544922 46.12065124511719 L 47.3591423034668 46.12065124511719 C 47.52546691894531 46.02386856079102 47.94348907470703 45.68741989135742 48.44467544555664 44.94035720825195 C 48.97623825073242 44.14801406860352 49.31159973144531 43.34250259399414 49.45741653442383 42.89845275878906 C 49.65119552612305 41.55117034912109 50.03708648681641 35.06095123291016 50.14435577392578 26.43692398071289 C 50.27815628051758 15.68077087402344 49.85776901245117 9.980171203613281 49.45711135864258 8.366748809814453 C 49.15053176879883 7.132205963134766 48.62633514404297 6.251358032226562 47.85454559326172 5.673900604248047 C 47.49465179443359 5.404613494873047 47.14690017700195 5.25390625 46.9249153137207 5.1761474609375 C 44.79358673095703 5.204238891601562 37.49690246582031 5.292758941650391 30.21849822998047 5.292758941650391 C 25.13774490356445 5.292758941650391 21.05033493041992 5.250194549560547 18.06969833374023 5.166252136230469 C 17.06874465942383 5.138042449951172 16.2235107421875 5.113677978515625 15.50393295288086 5.092933654785156 C 13.29016876220703 5.029125213623047 12.27979278564453 4.999992370605469 11.63988494873047 4.999992370605469 M 11.63988876342773 -3.814697265625e-06 C 12.57634353637695 -3.814697265625e-06 14.04042816162109 0.05071258544921875 18.21055603027344 0.1682395935058594 C 28.15939521789551 0.4484062194824219 47.47174453735352 0.1682395935058594 47.47174453735352 0.1682395935058594 C 47.47174453735352 0.1682395935058594 52.73876953125 0.8355941772460938 54.30972290039062 7.161712646484375 C 55.88068771362305 13.48783111572266 54.93868637084961 41.92343139648438 54.30972290039062 44.12718200683594 C 53.68075561523438 46.33093643188477 51.24825286865234 51.12065124511719 47.47174453735352 51.12065124511719 L 7.420696258544922 51.12065124511719 C 4.006732940673828 51.12065124511719 1.749897003173828 49.07275772094727 0.6249465942382812 44.90885162353516 C 0.6109199523925781 44.86203002929688 0.5827102661132812 44.49797058105469 0.5827102661132812 44.12718200683594 C 0.5827102661132812 44.12718200683594 -0.7283973693847656 10.96455764770508 0.5827102661132812 7.161712646484375 C 1.893814086914062 3.358875274658203 2.017169952392578 2.812263488769531 7.420696258544922 0.1682395935058594 C 10.20426559448242 0.0636138916015625 10.59123992919922 -3.814697265625e-06 11.63988876342773 -3.814697265625e-06 Z"/></g></g><g class="h"><path class="k" d="M 47.47174453735352 48.62065505981445 L 7.420695304870605 48.62065505981445 C 5.863465785980225 48.62065505981445 4.136735916137695 48.11951065063477 3.091702461242676 44.44894409179688 C 3.087116718292236 44.36430358886719 3.082715272903442 44.24832534790039 3.082715272903442 44.1271858215332 L 3.082715272903442 44.07779693603516 L 3.080765247344971 44.02843475341797 C 3.07752513885498 43.94658660888672 2.755365133285522 35.74470520019531 2.593085289001465 27.1551570892334 C 2.498065233230591 22.12599563598633 2.475655078887939 17.95321655273438 2.526475191116333 14.75273609161377 C 2.612602233886719 9.328113555908203 2.891036033630371 8.15592098236084 2.947898149490356 7.971606254577637 L 3.001735210418701 7.815396308898926 C 3.584195137023926 6.12476634979248 3.839845180511475 5.418236255645752 4.323524951934814 4.905266284942627 C 4.913818359375 4.279216289520264 6.188127040863037 3.567438364028931 8.048205375671387 2.645804405212402 C 9.016942024230957 2.60706639289856 9.654271125793457 2.574766397476196 10.13890552520752 2.550206422805786 C 10.79850482940674 2.516776561737061 11.12958526611328 2.499996423721313 11.63990497589111 2.499996423721313 C 12.3159351348877 2.499996423721313 13.33784484863281 2.529456377029419 15.57688522338867 2.594006538391113 C 16.29581451416016 2.614726543426514 17.14022445678711 2.639076471328735 18.1401252746582 2.667256593704224 C 21.09755516052246 2.750536441802979 25.16128540039062 2.792766571044922 30.2184944152832 2.792766571044922 C 37.98605346679688 2.792766571044922 45.77451705932617 2.691726446151733 47.25687026977539 2.671482086181641 C 47.55562210083008 2.740995645523071 48.31191635131836 2.957983732223511 49.12812423706055 3.512346506118774 C 50.48456573486328 4.433626651763916 51.41157531738281 5.864166259765625 51.88341522216797 7.764236450195312 C 52.48518371582031 10.18749618530273 52.76780700683594 17.3160572052002 52.63943481445312 26.83312606811523 C 52.52365493774414 35.41720962524414 52.1241340637207 42.38706970214844 51.89705276489258 43.47114181518555 C 51.62918472290039 44.39078140258789 50.97583389282227 45.79924774169922 50.10626602172852 46.90450668334961 C 49.49031448364258 47.68740463256836 48.53325653076172 48.62065505981445 47.47174453735352 48.62065505981445 Z"/><path class="l" d="M 11.63988494873047 4.999992370605469 C 11.19288635253906 4.999992370605469 10.90226364135742 5.014724731445312 10.26551055908203 5.046993255615234 C 9.870872497558594 5.066997528076172 9.376228332519531 5.092063903808594 8.687046051025391 5.121524810791016 C 7.800266265869141 5.569072723388672 7.182178497314453 5.907161712646484 6.738662719726562 6.185676574707031 C 6.257545471191406 6.487804412841797 6.138687133789062 6.624370574951172 6.137874603271484 6.625347137451172 C 5.987617492675781 6.823642730712891 5.627979278564453 7.867511749267578 5.365379333496094 8.629722595214844 L 5.3533935546875 8.664512634277344 C 5.233272552490234 9.279628753662109 4.807239532470703 12.58102798461914 5.102310180664062 27.61035919189453 C 5.266735076904297 35.98495864868164 5.575710296630859 43.85120391845703 5.578804016113281 43.9296875 C 5.580394744873047 43.96996307373047 5.581501007080078 44.0102653503418 5.582118988037109 44.05057525634766 C 5.964656829833984 45.26152801513672 6.367225646972656 45.72999572753906 6.534523010253906 45.88262939453125 C 6.625686645507812 45.96581649780273 6.795391082763672 46.12065124511719 7.420696258544922 46.12065124511719 L 47.3591423034668 46.12065124511719 C 47.52546691894531 46.02386856079102 47.94348907470703 45.68741989135742 48.44467544555664 44.94035720825195 C 48.97623825073242 44.14801406860352 49.31159973144531 43.34250259399414 49.45741653442383 42.89845275878906 C 49.65119552612305 41.55117034912109 50.03708648681641 35.06095123291016 50.14435577392578 26.43692398071289 C 50.27815628051758 15.68077087402344 49.85776901245117 9.980171203613281 49.45711135864258 8.366748809814453 C 49.15053176879883 7.132205963134766 48.62633514404297 6.251358032226562 47.85454559326172 5.673900604248047 C 47.49465179443359 5.404613494873047 47.14690017700195 5.25390625 46.9249153137207 5.1761474609375 C 44.79358673095703 5.204238891601562 37.49690246582031 5.292758941650391 30.21849822998047 5.292758941650391 C 25.13774490356445 5.292758941650391 21.05033493041992 5.250194549560547 18.06969833374023 5.166252136230469 C 17.06874465942383 5.138042449951172 16.2235107421875 5.113677978515625 15.50393295288086 5.092933654785156 C 13.29016876220703 5.029125213623047 12.27979278564453 4.999992370605469 11.63988494873047 4.999992370605469 M 11.63988876342773 -3.814697265625e-06 C 12.57634353637695 -3.814697265625e-06 14.04042816162109 0.05071258544921875 18.21055603027344 0.1682395935058594 C 28.15939521789551 0.4484062194824219 47.47174453735352 0.1682395935058594 47.47174453735352 0.1682395935058594 C 47.47174453735352 0.1682395935058594 52.73876953125 0.8355941772460938 54.30972290039062 7.161712646484375 C 55.88068771362305 13.48783111572266 54.93868637084961 41.92343139648438 54.30972290039062 44.12718200683594 C 53.68075561523438 46.33093643188477 51.24825286865234 51.12065124511719 47.47174453735352 51.12065124511719 L 7.420696258544922 51.12065124511719 C 4.006732940673828 51.12065124511719 1.749897003173828 49.07275772094727 0.6249465942382812 44.90885162353516 C 0.6109199523925781 44.86203002929688 0.5827102661132812 44.49797058105469 0.5827102661132812 44.12718200683594 C 0.5827102661132812 44.12718200683594 -0.7283973693847656 10.96455764770508 0.5827102661132812 7.161712646484375 C 1.893814086914062 3.358875274658203 2.017169952392578 2.812263488769531 7.420696258544922 0.1682395935058594 C 10.20426559448242 0.0636138916015625 10.59123992919922 -3.814697265625e-06 11.63988876342773 -3.814697265625e-06 Z"/></g></g><line class="i" y2="48.341" transform="translate(27.698 1.704)"/><path class="i" d="M0,0,53.377,1.007" transform="translate(0.506 25.875)"/></g></g><text class="j" transform="translate(195 153.584)"><tspan x="-194.992" y="0">DREAM HOME</tspan></text></g></svg>